# xmcd
#
# Track frame offsets:
#	182
#	36892
#	69072
#	111797
#	123520
#	129270
#	140032
#	152690
#	190112
#	198157
#	203405
#	212215
#	218042
#	229002
#	239282
#	243597
#	250592
#	257270
#	265477
#	273615
#	279735
#
# Disc length: 4179
#
# Revision: 2
# Processed by: cddbd v1.5.1PL0 Copyright (c) Steve Scherf et al.
# Submitted via: EasyCDDAExtractor 5.0.6
# Normalized: r1:DSETVAR1
#
DISCID=32105115
DTITLE=Various Artist - Jan Wolf guitare
DYEAR=1900
DGENRE=
TTITLE0=Lennox Berkeley - Theme and Variations Op 77 - Lennox Berkeley 1903 1989
TTITLE1=Girolamo Arrigo - Serenata - Girolamo Arrigo b1930
TTITLE2=Toru Takemitsu - Folies - Toru Takemitsu b1930
TTITLE3=Frank Martin - Quatre pièces brêves I Prélude - Frank Martin 1890 1974
TTITLE4=Frank Martin - Quatre pièces brêves 2 Air - Frank Martin
TTITLE5=Frank Martin - Quatre pièces brêves 3 Plainte - Frank Martin
TTITLE6=Frank Martin - Quatre pièces brêves 4 Comme une gigue - Frank Martin
TTITLE7=Goffredo Petrassi - Nunc - Goffredo Petrassi b1904
TTITLE8=Richard Rodney Bennett - Impromptus Recitativo - Richard Rodney Bennett b1968
TTITLE9=Richard Rodney Bennett - Impromptus Agitato - Richard Rodney Bennett
TTITLE10=Richard Rodney Bennett - Impromptus Elegiaco - Richard Rodney Bennett
TTITLE11=Richard Rodney Bennett - Impromptus Con fuoco - Richard Rodney Bennett
TTITLE12=Richard Rodney Bennett - Impromptus Arioso - Richard Rodney Bennett
TTITLE13=Benjamin Britten - Nocturnal after John Dowland, Op. 70 - I Musingly - Benjamin Britten 1913 1976
TTITLE14=Benjamin Britten - Op. 70 - II Very agitated - Benjamin Britten
TTITLE15=Benjamin Britten - Op. 70 - III Restless - Benjamin Britten
TTITLE16=Benjamin Britten - Op. 70 - IV Uneasy - Benjamin Britten
TTITLE17=Benjamin Britten - Op. 70 - V March-like - Benjamin Britten
TTITLE18=Benjamin Britten - Op. 70 - VI Dreaming - Benjamin Britten
TTITLE19=Benjamin Britten - Op. 70 - VII Gently rocking - Benjamin Britten
TTITLE20=Benjamin Britten - Op. 70 - II Very agitated - Benjamin Britten
EXTD=
EXTT0=
EXTT1=
EXTT2=
EXTT3=
EXTT4=
EXTT5=
EXTT6=
EXTT7=
EXTT8=
EXTT9=
EXTT10=
EXTT11=
EXTT12=
EXTT13=
EXTT14=
EXTT15=
EXTT16=
EXTT17=
EXTT18=
EXTT19=
EXTT20=
PLAYORDER=
